<svg xmlns="http://www.w3.org/2000/svg" width="192" height="192" viewBox="0 0 192 192">
  <rect width="192" height="192" rx="40" fill="#ffffff"/>
  <!-- QR finder: top-left -->
  <rect x="24" y="24" width="44" height="44" rx="8" fill="#0a0a14"/>
  <rect x="32" y="32" width="28" height="28" rx="4" fill="#ffffff"/>
  <rect x="39" y="39" width="14" height="14" rx="2" fill="#0a0a14"/>
  <!-- QR finder: top-right -->
  <rect x="124" y="24" width="44" height="44" rx="8" fill="#0a0a14"/>
  <rect x="132" y="32" width="28" height="28" rx="4" fill="#ffffff"/>
  <rect x="139" y="39" width="14" height="14" rx="2" fill="#0a0a14"/>
  <!-- QR finder: bottom-left -->
  <rect x="24" y="124" width="44" height="44" rx="8" fill="#0a0a14"/>
  <rect x="32" y="132" width="28" height="28" rx="4" fill="#ffffff"/>
  <rect x="39" y="139" width="14" height="14" rx="2" fill="#0a0a14"/>
  <!-- Heartbeat ECG line -->
  <path d="M10 96 L48 96 L62 58 L82 134 L100 76 L115 115 L130 96 L182 96" stroke="#0a0a14" stroke-width="8" stroke-linecap="round" stroke-linejoin="round" fill="none"/>
  <!-- Center dot -->
  <circle cx="96" cy="96" r="12" fill="#0a0a14"/>
</svg>
