<svg xmlns="http://www.w3.org/2000/svg" width="512" height="512" viewBox="0 0 512 512">
  <!-- Full bleed background for maskable icon -->
  <rect width="512" height="512" fill="#ffffff"/>
  <!-- Mark centered in safe zone (80% = ~410px centered, offset ~51px) -->
  <!-- QR finder: top-left -->
  <rect x="90" y="90" width="90" height="90" rx="16" fill="#0a0a14"/>
  <rect x="104" y="104" width="62" height="62" rx="8" fill="#ffffff"/>
  <rect x="118" y="118" width="34" height="34" rx="4" fill="#0a0a14"/>
  <!-- QR finder: top-right -->
  <rect x="332" y="90" width="90" height="90" rx="16" fill="#0a0a14"/>
  <rect x="346" y="104" width="62" height="62" rx="8" fill="#ffffff"/>
  <rect x="360" y="118" width="34" height="34" rx="4" fill="#0a0a14"/>
  <!-- QR finder: bottom-left -->
  <rect x="90" y="332" width="90" height="90" rx="16" fill="#0a0a14"/>
  <rect x="104" y="346" width="62" height="62" rx="8" fill="#ffffff"/>
  <rect x="118" y="360" width="34" height="34" rx="4" fill="#0a0a14"/>
  <!-- Heartbeat ECG line -->
  <path d="M52 256 L144 256 L176 170 L218 342 L262 210 L298 298 L332 256 L460 256" stroke="#0a0a14" stroke-width="16" stroke-linecap="round" stroke-linejoin="round" fill="none"/>
  <!-- Center dot -->
  <circle cx="256" cy="256" r="26" fill="#0a0a14"/>
</svg>
