<svg xmlns="http://www.w3.org/2000/svg" width="512" height="512" viewBox="0 0 512 512">
  <rect width="512" height="512" rx="96" fill="#ffffff"/>
  <!-- QR finder: top-left -->
  <rect x="64" y="64" width="112" height="112" rx="20" fill="#0a0a14"/>
  <rect x="82" y="82" width="76" height="76" rx="10" fill="#ffffff"/>
  <rect x="100" y="100" width="40" height="40" rx="6" fill="#0a0a14"/>
  <!-- QR finder: top-right -->
  <rect x="336" y="64" width="112" height="112" rx="20" fill="#0a0a14"/>
  <rect x="354" y="82" width="76" height="76" rx="10" fill="#ffffff"/>
  <rect x="372" y="100" width="40" height="40" rx="6" fill="#0a0a14"/>
  <!-- QR finder: bottom-left -->
  <rect x="64" y="336" width="112" height="112" rx="20" fill="#0a0a14"/>
  <rect x="82" y="354" width="76" height="76" rx="10" fill="#ffffff"/>
  <rect x="100" y="372" width="40" height="40" rx="6" fill="#0a0a14"/>
  <!-- Heartbeat ECG line -->
  <path d="M26 256 L128 256 L166 154 L218 358 L268 202 L307 307 L346 256 L486 256" stroke="#0a0a14" stroke-width="20" stroke-linecap="round" stroke-linejoin="round" fill="none"/>
  <!-- Center dot -->
  <circle cx="256" cy="256" r="32" fill="#0a0a14"/>
</svg>
